<mxfile host="app.diagrams.net" modified="2024-04-18T18:07:24.491Z" agent="Mozilla/5.0 (Macintosh; Intel Mac OS X 10_15_7) AppleWebKit/605.1.15 (KHTML, like Gecko) Version/17.4.1 Safari/605.1.15" etag="jcu2Jwa63cd3UBPUDlHf" version="24.2.5" type="device">
  <diagram id="C5RBs43oDa-KdzZeNtuy" name="Page-1">
    <mxGraphModel dx="1706" dy="2093" grid="1" gridSize="10" guides="1" tooltips="1" connect="1" arrows="1" fold="1" page="1" pageScale="1" pageWidth="827" pageHeight="1169" math="0" shadow="0">
      <root>
        <mxCell id="WIyWlLk6GJQsqaUBKTNV-0" />
        <mxCell id="WIyWlLk6GJQsqaUBKTNV-1" parent="WIyWlLk6GJQsqaUBKTNV-0" />
        <mxCell id="NSkW3KWlc_2_OilBfYWb-0" value="Debt" style="swimlane;fontStyle=2;align=center;verticalAlign=top;childLayout=stackLayout;horizontal=1;startSize=26;horizontalStack=0;resizeParent=1;resizeLast=0;collapsible=1;marginBottom=0;rounded=0;shadow=0;strokeWidth=1;" parent="WIyWlLk6GJQsqaUBKTNV-1" vertex="1">
          <mxGeometry x="580" y="738" width="180" height="268" as="geometry">
            <mxRectangle x="230" y="140" width="160" height="26" as="alternateBounds" />
          </mxGeometry>
        </mxCell>
        <mxCell id="NSkW3KWlc_2_OilBfYWb-1" value="User" style="text;align=left;verticalAlign=top;spacingLeft=4;spacingRight=4;overflow=hidden;rotatable=0;points=[[0,0.5],[1,0.5]];portConstraint=eastwest;" parent="NSkW3KWlc_2_OilBfYWb-0" vertex="1">
          <mxGeometry y="26" width="180" height="26" as="geometry" />
        </mxCell>
        <mxCell id="KpGOKhWoG8OeWUsjkw3W-4" value="Expense" style="text;align=left;verticalAlign=top;spacingLeft=4;spacingRight=4;overflow=hidden;rotatable=0;points=[[0,0.5],[1,0.5]];portConstraint=eastwest;" vertex="1" parent="NSkW3KWlc_2_OilBfYWb-0">
          <mxGeometry y="52" width="180" height="26" as="geometry" />
        </mxCell>
        <mxCell id="NSkW3KWlc_2_OilBfYWb-3" value="Concepto" style="text;align=left;verticalAlign=top;spacingLeft=4;spacingRight=4;overflow=hidden;rotatable=0;points=[[0,0.5],[1,0.5]];portConstraint=eastwest;rounded=0;shadow=0;html=0;" parent="NSkW3KWlc_2_OilBfYWb-0" vertex="1">
          <mxGeometry y="78" width="180" height="26" as="geometry" />
        </mxCell>
        <mxCell id="NSkW3KWlc_2_OilBfYWb-39" value="Evento" style="text;align=left;verticalAlign=top;spacingLeft=4;spacingRight=4;overflow=hidden;rotatable=0;points=[[0,0.5],[1,0.5]];portConstraint=eastwest;rounded=0;shadow=0;html=0;" parent="NSkW3KWlc_2_OilBfYWb-0" vertex="1">
          <mxGeometry y="104" width="180" height="26" as="geometry" />
        </mxCell>
        <mxCell id="NSkW3KWlc_2_OilBfYWb-44" value="Deudores - List&lt;User&gt;" style="text;align=left;verticalAlign=top;spacingLeft=4;spacingRight=4;overflow=hidden;rotatable=0;points=[[0,0.5],[1,0.5]];portConstraint=eastwest;rounded=0;shadow=0;html=0;" parent="NSkW3KWlc_2_OilBfYWb-0" vertex="1">
          <mxGeometry y="130" width="180" height="26" as="geometry" />
        </mxCell>
        <mxCell id="KpGOKhWoG8OeWUsjkw3W-50" value="PayedDeudores - List&lt;User&gt;" style="text;align=left;verticalAlign=top;spacingLeft=4;spacingRight=4;overflow=hidden;rotatable=0;points=[[0,0.5],[1,0.5]];portConstraint=eastwest;rounded=0;shadow=0;html=0;" vertex="1" parent="NSkW3KWlc_2_OilBfYWb-0">
          <mxGeometry y="156" width="180" height="26" as="geometry" />
        </mxCell>
        <mxCell id="KpGOKhWoG8OeWUsjkw3W-47" value="AmountToPay" style="text;align=left;verticalAlign=top;spacingLeft=4;spacingRight=4;overflow=hidden;rotatable=0;points=[[0,0.5],[1,0.5]];portConstraint=eastwest;rounded=0;shadow=0;html=0;" vertex="1" parent="NSkW3KWlc_2_OilBfYWb-0">
          <mxGeometry y="182" width="180" height="26" as="geometry" />
        </mxCell>
        <mxCell id="KpGOKhWoG8OeWUsjkw3W-49" value="PayedAmount" style="text;align=left;verticalAlign=top;spacingLeft=4;spacingRight=4;overflow=hidden;rotatable=0;points=[[0,0.5],[1,0.5]];portConstraint=eastwest;rounded=0;shadow=0;html=0;" vertex="1" parent="NSkW3KWlc_2_OilBfYWb-0">
          <mxGeometry y="208" width="180" height="26" as="geometry" />
        </mxCell>
        <mxCell id="NSkW3KWlc_2_OilBfYWb-4" value="" style="line;html=1;strokeWidth=1;align=left;verticalAlign=middle;spacingTop=-1;spacingLeft=3;spacingRight=3;rotatable=0;labelPosition=right;points=[];portConstraint=eastwest;" parent="NSkW3KWlc_2_OilBfYWb-0" vertex="1">
          <mxGeometry y="234" width="180" height="8" as="geometry" />
        </mxCell>
        <mxCell id="KpGOKhWoG8OeWUsjkw3W-45" value="calculateAmount()" style="text;align=left;verticalAlign=top;spacingLeft=4;spacingRight=4;overflow=hidden;rotatable=0;points=[[0,0.5],[1,0.5]];portConstraint=eastwest;rounded=0;shadow=0;html=0;" vertex="1" parent="NSkW3KWlc_2_OilBfYWb-0">
          <mxGeometry y="242" width="180" height="26" as="geometry" />
        </mxCell>
        <mxCell id="NSkW3KWlc_2_OilBfYWb-7" value="Deudor" style="swimlane;fontStyle=2;align=center;verticalAlign=top;childLayout=stackLayout;horizontal=1;startSize=26;horizontalStack=0;resizeParent=1;resizeLast=0;collapsible=1;marginBottom=0;rounded=0;shadow=0;strokeWidth=1;" parent="WIyWlLk6GJQsqaUBKTNV-1" vertex="1">
          <mxGeometry x="160" y="738" width="310" height="242" as="geometry">
            <mxRectangle x="230" y="140" width="160" height="26" as="alternateBounds" />
          </mxGeometry>
        </mxCell>
        <mxCell id="NSkW3KWlc_2_OilBfYWb-8" value="User" style="text;align=left;verticalAlign=top;spacingLeft=4;spacingRight=4;overflow=hidden;rotatable=0;points=[[0,0.5],[1,0.5]];portConstraint=eastwest;" parent="NSkW3KWlc_2_OilBfYWb-7" vertex="1">
          <mxGeometry y="26" width="310" height="26" as="geometry" />
        </mxCell>
        <mxCell id="NSkW3KWlc_2_OilBfYWb-9" value="Personas a pagar - List&lt;Debt&gt;" style="text;align=left;verticalAlign=top;spacingLeft=4;spacingRight=4;overflow=hidden;rotatable=0;points=[[0,0.5],[1,0.5]];portConstraint=eastwest;rounded=0;shadow=0;html=0;" parent="NSkW3KWlc_2_OilBfYWb-7" vertex="1">
          <mxGeometry y="52" width="310" height="26" as="geometry" />
        </mxCell>
        <mxCell id="KpGOKhWoG8OeWUsjkw3W-51" value="payedOtherExpense" style="text;align=left;verticalAlign=top;spacingLeft=4;spacingRight=4;overflow=hidden;rotatable=0;points=[[0,0.5],[1,0.5]];portConstraint=eastwest;rounded=0;shadow=0;html=0;" vertex="1" parent="NSkW3KWlc_2_OilBfYWb-7">
          <mxGeometry y="78" width="310" height="26" as="geometry" />
        </mxCell>
        <mxCell id="KpGOKhWoG8OeWUsjkw3W-53" value="Cuenta a cobrar - List&lt;Debt&gt;" style="text;align=left;verticalAlign=top;spacingLeft=4;spacingRight=4;overflow=hidden;rotatable=0;points=[[0,0.5],[1,0.5]];portConstraint=eastwest;rounded=0;shadow=0;html=0;" vertex="1" parent="NSkW3KWlc_2_OilBfYWb-7">
          <mxGeometry y="104" width="310" height="26" as="geometry" />
        </mxCell>
        <mxCell id="NSkW3KWlc_2_OilBfYWb-37" value="evento" style="text;align=left;verticalAlign=top;spacingLeft=4;spacingRight=4;overflow=hidden;rotatable=0;points=[[0,0.5],[1,0.5]];portConstraint=eastwest;rounded=0;shadow=0;html=0;" parent="NSkW3KWlc_2_OilBfYWb-7" vertex="1">
          <mxGeometry y="130" width="310" height="26" as="geometry" />
        </mxCell>
        <mxCell id="NSkW3KWlc_2_OilBfYWb-132" value="Concepto" style="text;align=left;verticalAlign=top;spacingLeft=4;spacingRight=4;overflow=hidden;rotatable=0;points=[[0,0.5],[1,0.5]];portConstraint=eastwest;rounded=0;shadow=0;html=0;" parent="NSkW3KWlc_2_OilBfYWb-7" vertex="1">
          <mxGeometry y="156" width="310" height="26" as="geometry" />
        </mxCell>
        <mxCell id="KpGOKhWoG8OeWUsjkw3W-48" value="debts " style="text;align=left;verticalAlign=top;spacingLeft=4;spacingRight=4;overflow=hidden;rotatable=0;points=[[0,0.5],[1,0.5]];portConstraint=eastwest;rounded=0;shadow=0;html=0;" vertex="1" parent="NSkW3KWlc_2_OilBfYWb-7">
          <mxGeometry y="182" width="310" height="26" as="geometry" />
        </mxCell>
        <mxCell id="NSkW3KWlc_2_OilBfYWb-11" value="" style="line;html=1;strokeWidth=1;align=left;verticalAlign=middle;spacingTop=-1;spacingLeft=3;spacingRight=3;rotatable=0;labelPosition=right;points=[];portConstraint=eastwest;" parent="NSkW3KWlc_2_OilBfYWb-7" vertex="1">
          <mxGeometry y="208" width="310" height="8" as="geometry" />
        </mxCell>
        <mxCell id="KpGOKhWoG8OeWUsjkw3W-16" value="payed()   - AmountToPay in Debt Class  - debts in class" style="text;align=left;verticalAlign=top;spacingLeft=4;spacingRight=4;overflow=hidden;rotatable=0;points=[[0,0.5],[1,0.5]];portConstraint=eastwest;rounded=0;shadow=0;html=0;" vertex="1" parent="NSkW3KWlc_2_OilBfYWb-7">
          <mxGeometry y="216" width="310" height="26" as="geometry" />
        </mxCell>
        <mxCell id="NSkW3KWlc_2_OilBfYWb-31" value="Evento" style="swimlane;fontStyle=2;align=center;verticalAlign=top;childLayout=stackLayout;horizontal=1;startSize=26;horizontalStack=0;resizeParent=1;resizeLast=0;collapsible=1;marginBottom=0;rounded=0;shadow=0;strokeWidth=1;" parent="WIyWlLk6GJQsqaUBKTNV-1" vertex="1">
          <mxGeometry x="630" y="190" width="370" height="346" as="geometry">
            <mxRectangle x="230" y="140" width="160" height="26" as="alternateBounds" />
          </mxGeometry>
        </mxCell>
        <mxCell id="NSkW3KWlc_2_OilBfYWb-32" value="titulo" style="text;align=left;verticalAlign=top;spacingLeft=4;spacingRight=4;overflow=hidden;rotatable=0;points=[[0,0.5],[1,0.5]];portConstraint=eastwest;" parent="NSkW3KWlc_2_OilBfYWb-31" vertex="1">
          <mxGeometry y="26" width="370" height="26" as="geometry" />
        </mxCell>
        <mxCell id="NSkW3KWlc_2_OilBfYWb-89" value="Organizer - User" style="text;align=left;verticalAlign=top;spacingLeft=4;spacingRight=4;overflow=hidden;rotatable=0;points=[[0,0.5],[1,0.5]];portConstraint=eastwest;rounded=0;shadow=0;html=0;" parent="NSkW3KWlc_2_OilBfYWb-31" vertex="1">
          <mxGeometry y="52" width="370" height="26" as="geometry" />
        </mxCell>
        <mxCell id="NSkW3KWlc_2_OilBfYWb-33" value="Ubicación" style="text;align=left;verticalAlign=top;spacingLeft=4;spacingRight=4;overflow=hidden;rotatable=0;points=[[0,0.5],[1,0.5]];portConstraint=eastwest;rounded=0;shadow=0;html=0;" parent="NSkW3KWlc_2_OilBfYWb-31" vertex="1">
          <mxGeometry y="78" width="370" height="26" as="geometry" />
        </mxCell>
        <mxCell id="NSkW3KWlc_2_OilBfYWb-34" value="Importe total" style="text;align=left;verticalAlign=top;spacingLeft=4;spacingRight=4;overflow=hidden;rotatable=0;points=[[0,0.5],[1,0.5]];portConstraint=eastwest;rounded=0;shadow=0;html=0;" parent="NSkW3KWlc_2_OilBfYWb-31" vertex="1">
          <mxGeometry y="104" width="370" height="26" as="geometry" />
        </mxCell>
        <mxCell id="NSkW3KWlc_2_OilBfYWb-36" value="cantidad de personas" style="text;align=left;verticalAlign=top;spacingLeft=4;spacingRight=4;overflow=hidden;rotatable=0;points=[[0,0.5],[1,0.5]];portConstraint=eastwest;rounded=0;shadow=0;html=0;" parent="NSkW3KWlc_2_OilBfYWb-31" vertex="1">
          <mxGeometry y="130" width="370" height="26" as="geometry" />
        </mxCell>
        <mxCell id="NSkW3KWlc_2_OilBfYWb-71" value="Date" style="text;align=left;verticalAlign=top;spacingLeft=4;spacingRight=4;overflow=hidden;rotatable=0;points=[[0,0.5],[1,0.5]];portConstraint=eastwest;rounded=0;shadow=0;html=0;" parent="NSkW3KWlc_2_OilBfYWb-31" vertex="1">
          <mxGeometry y="156" width="370" height="26" as="geometry" />
        </mxCell>
        <mxCell id="KpGOKhWoG8OeWUsjkw3W-19" value="Assistants _ List" style="text;align=left;verticalAlign=top;spacingLeft=4;spacingRight=4;overflow=hidden;rotatable=0;points=[[0,0.5],[1,0.5]];portConstraint=eastwest;rounded=0;shadow=0;html=0;" vertex="1" parent="NSkW3KWlc_2_OilBfYWb-31">
          <mxGeometry y="182" width="370" height="26" as="geometry" />
        </mxCell>
        <mxCell id="KpGOKhWoG8OeWUsjkw3W-20" value="Expenses" style="text;align=left;verticalAlign=top;spacingLeft=4;spacingRight=4;overflow=hidden;rotatable=0;points=[[0,0.5],[1,0.5]];portConstraint=eastwest;rounded=0;shadow=0;html=0;" vertex="1" parent="NSkW3KWlc_2_OilBfYWb-31">
          <mxGeometry y="208" width="370" height="26" as="geometry" />
        </mxCell>
        <mxCell id="KpGOKhWoG8OeWUsjkw3W-52" value="status - enum open or closed" style="text;align=left;verticalAlign=top;spacingLeft=4;spacingRight=4;overflow=hidden;rotatable=0;points=[[0,0.5],[1,0.5]];portConstraint=eastwest;rounded=0;shadow=0;html=0;" vertex="1" parent="NSkW3KWlc_2_OilBfYWb-31">
          <mxGeometry y="234" width="370" height="26" as="geometry" />
        </mxCell>
        <mxCell id="KpGOKhWoG8OeWUsjkw3W-21" value="settle-up - Boolean" style="text;align=left;verticalAlign=top;spacingLeft=4;spacingRight=4;overflow=hidden;rotatable=0;points=[[0,0.5],[1,0.5]];portConstraint=eastwest;rounded=0;shadow=0;html=0;" vertex="1" parent="NSkW3KWlc_2_OilBfYWb-31">
          <mxGeometry y="260" width="370" height="26" as="geometry" />
        </mxCell>
        <mxCell id="NSkW3KWlc_2_OilBfYWb-35" value="" style="line;html=1;strokeWidth=1;align=left;verticalAlign=middle;spacingTop=-1;spacingLeft=3;spacingRight=3;rotatable=0;labelPosition=right;points=[];portConstraint=eastwest;" parent="NSkW3KWlc_2_OilBfYWb-31" vertex="1">
          <mxGeometry y="286" width="370" height="8" as="geometry" />
        </mxCell>
        <mxCell id="NSkW3KWlc_2_OilBfYWb-41" value="setEvent()" style="text;align=left;verticalAlign=top;spacingLeft=4;spacingRight=4;overflow=hidden;rotatable=0;points=[[0,0.5],[1,0.5]];portConstraint=eastwest;rounded=0;shadow=0;html=0;" parent="NSkW3KWlc_2_OilBfYWb-31" vertex="1">
          <mxGeometry y="294" width="370" height="26" as="geometry" />
        </mxCell>
        <mxCell id="KpGOKhWoG8OeWUsjkw3W-36" value="addExpense(PayingUser, List&lt;DebtUser&gt;)   + expense " style="text;align=left;verticalAlign=top;spacingLeft=4;spacingRight=4;overflow=hidden;rotatable=0;points=[[0,0.5],[1,0.5]];portConstraint=eastwest;rounded=0;shadow=0;html=0;" vertex="1" parent="NSkW3KWlc_2_OilBfYWb-31">
          <mxGeometry y="320" width="370" height="26" as="geometry" />
        </mxCell>
        <mxCell id="NSkW3KWlc_2_OilBfYWb-46" value="Add pagador" style="whiteSpace=wrap;html=1;aspect=fixed;" parent="WIyWlLk6GJQsqaUBKTNV-1" vertex="1">
          <mxGeometry x="1241" y="1420" width="80" height="80" as="geometry" />
        </mxCell>
        <mxCell id="NSkW3KWlc_2_OilBfYWb-49" value="Add expense&lt;div&gt;to the event&lt;/div&gt;" style="whiteSpace=wrap;html=1;aspect=fixed;" parent="WIyWlLk6GJQsqaUBKTNV-1" vertex="1">
          <mxGeometry x="1241" y="1550" width="80" height="80" as="geometry" />
        </mxCell>
        <mxCell id="NSkW3KWlc_2_OilBfYWb-51" value="Add assistant" style="whiteSpace=wrap;html=1;aspect=fixed;" parent="WIyWlLk6GJQsqaUBKTNV-1" vertex="1">
          <mxGeometry x="1360" y="800" width="80" height="80" as="geometry" />
        </mxCell>
        <mxCell id="NSkW3KWlc_2_OilBfYWb-55" value="Define event" style="whiteSpace=wrap;html=1;aspect=fixed;" parent="WIyWlLk6GJQsqaUBKTNV-1" vertex="1">
          <mxGeometry x="1360" y="690" width="80" height="80" as="geometry" />
        </mxCell>
        <mxCell id="NSkW3KWlc_2_OilBfYWb-58" value="Add deudor" style="whiteSpace=wrap;html=1;aspect=fixed;" parent="WIyWlLk6GJQsqaUBKTNV-1" vertex="1">
          <mxGeometry x="1460" y="1420" width="80" height="80" as="geometry" />
        </mxCell>
        <mxCell id="NSkW3KWlc_2_OilBfYWb-68" value="Define amounts to pay between deudores and pagadores" style="whiteSpace=wrap;html=1;aspect=fixed;" parent="WIyWlLk6GJQsqaUBKTNV-1" vertex="1">
          <mxGeometry x="1335" y="1970" width="130" height="130" as="geometry" />
        </mxCell>
        <mxCell id="NSkW3KWlc_2_OilBfYWb-73" value="User" style="swimlane;fontStyle=2;align=center;verticalAlign=top;childLayout=stackLayout;horizontal=1;startSize=26;horizontalStack=0;resizeParent=1;resizeLast=0;collapsible=1;marginBottom=0;rounded=0;shadow=0;strokeWidth=1;" parent="WIyWlLk6GJQsqaUBKTNV-1" vertex="1">
          <mxGeometry x="300" y="190" width="160" height="110" as="geometry">
            <mxRectangle x="230" y="140" width="160" height="26" as="alternateBounds" />
          </mxGeometry>
        </mxCell>
        <mxCell id="NSkW3KWlc_2_OilBfYWb-74" value="Name" style="text;align=left;verticalAlign=top;spacingLeft=4;spacingRight=4;overflow=hidden;rotatable=0;points=[[0,0.5],[1,0.5]];portConstraint=eastwest;" parent="NSkW3KWlc_2_OilBfYWb-73" vertex="1">
          <mxGeometry y="26" width="160" height="26" as="geometry" />
        </mxCell>
        <mxCell id="NSkW3KWlc_2_OilBfYWb-75" value="Mail" style="text;align=left;verticalAlign=top;spacingLeft=4;spacingRight=4;overflow=hidden;rotatable=0;points=[[0,0.5],[1,0.5]];portConstraint=eastwest;rounded=0;shadow=0;html=0;" parent="NSkW3KWlc_2_OilBfYWb-73" vertex="1">
          <mxGeometry y="52" width="160" height="26" as="geometry" />
        </mxCell>
        <mxCell id="KpGOKhWoG8OeWUsjkw3W-3" value="events - List" style="text;align=left;verticalAlign=top;spacingLeft=4;spacingRight=4;overflow=hidden;rotatable=0;points=[[0,0.5],[1,0.5]];portConstraint=eastwest;rounded=0;shadow=0;html=0;" vertex="1" parent="NSkW3KWlc_2_OilBfYWb-73">
          <mxGeometry y="78" width="160" height="26" as="geometry" />
        </mxCell>
        <mxCell id="NSkW3KWlc_2_OilBfYWb-85" value="Did the assistant pay something?" style="text;html=1;align=center;verticalAlign=middle;whiteSpace=wrap;rounded=0;" parent="WIyWlLk6GJQsqaUBKTNV-1" vertex="1">
          <mxGeometry x="1370" y="1280" width="60" height="30" as="geometry" />
        </mxCell>
        <mxCell id="NSkW3KWlc_2_OilBfYWb-86" value="No" style="text;html=1;align=center;verticalAlign=middle;whiteSpace=wrap;rounded=0;" parent="WIyWlLk6GJQsqaUBKTNV-1" vertex="1">
          <mxGeometry x="1480" y="1390" width="60" height="30" as="geometry" />
        </mxCell>
        <mxCell id="NSkW3KWlc_2_OilBfYWb-87" value="Yes" style="text;html=1;align=center;verticalAlign=middle;whiteSpace=wrap;rounded=0;" parent="WIyWlLk6GJQsqaUBKTNV-1" vertex="1">
          <mxGeometry x="1251" y="1390" width="60" height="30" as="geometry" />
        </mxCell>
        <mxCell id="NSkW3KWlc_2_OilBfYWb-91" value="" style="endArrow=classic;html=1;rounded=0;entryX=0.75;entryY=0;entryDx=0;entryDy=0;" parent="WIyWlLk6GJQsqaUBKTNV-1" target="NSkW3KWlc_2_OilBfYWb-87" edge="1">
          <mxGeometry width="50" height="50" relative="1" as="geometry">
            <mxPoint x="1400" y="1330" as="sourcePoint" />
            <mxPoint x="1410" y="1389" as="targetPoint" />
          </mxGeometry>
        </mxCell>
        <mxCell id="NSkW3KWlc_2_OilBfYWb-92" value="" style="endArrow=classic;html=1;rounded=0;entryX=0.25;entryY=0;entryDx=0;entryDy=0;" parent="WIyWlLk6GJQsqaUBKTNV-1" target="NSkW3KWlc_2_OilBfYWb-86" edge="1">
          <mxGeometry width="50" height="50" relative="1" as="geometry">
            <mxPoint x="1400" y="1330" as="sourcePoint" />
            <mxPoint x="1490" y="1350" as="targetPoint" />
          </mxGeometry>
        </mxCell>
        <mxCell id="NSkW3KWlc_2_OilBfYWb-93" value="Users" style="whiteSpace=wrap;html=1;aspect=fixed;" parent="WIyWlLk6GJQsqaUBKTNV-1" vertex="1">
          <mxGeometry x="1360" y="40" width="80" height="80" as="geometry" />
        </mxCell>
        <mxCell id="NSkW3KWlc_2_OilBfYWb-95" value="" style="endArrow=classic;html=1;rounded=0;exitX=0.5;exitY=1;exitDx=0;exitDy=0;" parent="WIyWlLk6GJQsqaUBKTNV-1" source="NSkW3KWlc_2_OilBfYWb-93" edge="1">
          <mxGeometry width="50" height="50" relative="1" as="geometry">
            <mxPoint x="1470" y="140" as="sourcePoint" />
            <mxPoint x="1400" y="150" as="targetPoint" />
          </mxGeometry>
        </mxCell>
        <mxCell id="NSkW3KWlc_2_OilBfYWb-96" value="New userApp?" style="text;html=1;align=center;verticalAlign=middle;whiteSpace=wrap;rounded=0;" parent="WIyWlLk6GJQsqaUBKTNV-1" vertex="1">
          <mxGeometry x="1370" y="170" width="60" height="30" as="geometry" />
        </mxCell>
        <mxCell id="NSkW3KWlc_2_OilBfYWb-97" value="No" style="text;html=1;align=center;verticalAlign=middle;whiteSpace=wrap;rounded=0;" parent="WIyWlLk6GJQsqaUBKTNV-1" vertex="1">
          <mxGeometry x="1480" y="300" width="60" height="30" as="geometry" />
        </mxCell>
        <mxCell id="NSkW3KWlc_2_OilBfYWb-98" value="Yes" style="text;html=1;align=center;verticalAlign=middle;whiteSpace=wrap;rounded=0;" parent="WIyWlLk6GJQsqaUBKTNV-1" vertex="1">
          <mxGeometry x="1251" y="260" width="60" height="30" as="geometry" />
        </mxCell>
        <mxCell id="NSkW3KWlc_2_OilBfYWb-99" value="" style="endArrow=classic;html=1;rounded=0;entryX=0.75;entryY=0;entryDx=0;entryDy=0;" parent="WIyWlLk6GJQsqaUBKTNV-1" target="NSkW3KWlc_2_OilBfYWb-98" edge="1">
          <mxGeometry width="50" height="50" relative="1" as="geometry">
            <mxPoint x="1400" y="220" as="sourcePoint" />
            <mxPoint x="1410" y="279" as="targetPoint" />
          </mxGeometry>
        </mxCell>
        <mxCell id="NSkW3KWlc_2_OilBfYWb-100" value="" style="endArrow=classic;html=1;rounded=0;entryX=0.25;entryY=0;entryDx=0;entryDy=0;" parent="WIyWlLk6GJQsqaUBKTNV-1" target="NSkW3KWlc_2_OilBfYWb-97" edge="1">
          <mxGeometry width="50" height="50" relative="1" as="geometry">
            <mxPoint x="1400" y="220" as="sourcePoint" />
            <mxPoint x="1490" y="240" as="targetPoint" />
          </mxGeometry>
        </mxCell>
        <mxCell id="NSkW3KWlc_2_OilBfYWb-101" value="Create userApp" style="whiteSpace=wrap;html=1;aspect=fixed;" parent="WIyWlLk6GJQsqaUBKTNV-1" vertex="1">
          <mxGeometry x="1243.75" y="280" width="80" height="80" as="geometry" />
        </mxCell>
        <mxCell id="NSkW3KWlc_2_OilBfYWb-106" value="" style="endArrow=classic;html=1;rounded=0;exitX=0.5;exitY=1;exitDx=0;exitDy=0;entryX=0.5;entryY=0;entryDx=0;entryDy=0;" parent="WIyWlLk6GJQsqaUBKTNV-1" source="NSkW3KWlc_2_OilBfYWb-46" target="NSkW3KWlc_2_OilBfYWb-49" edge="1">
          <mxGeometry width="50" height="50" relative="1" as="geometry">
            <mxPoint x="1130" y="1550" as="sourcePoint" />
            <mxPoint x="1180" y="1500" as="targetPoint" />
          </mxGeometry>
        </mxCell>
        <mxCell id="NSkW3KWlc_2_OilBfYWb-107" value="Define the amount of persons to divide the bill" style="whiteSpace=wrap;html=1;aspect=fixed;" parent="WIyWlLk6GJQsqaUBKTNV-1" vertex="1">
          <mxGeometry x="1241" y="1680" width="80" height="80" as="geometry" />
        </mxCell>
        <mxCell id="NSkW3KWlc_2_OilBfYWb-108" value="Did you pay anything else?" style="text;html=1;align=center;verticalAlign=middle;whiteSpace=wrap;rounded=0;" parent="WIyWlLk6GJQsqaUBKTNV-1" vertex="1">
          <mxGeometry x="1238.25" y="1800" width="85.5" height="30" as="geometry" />
        </mxCell>
        <mxCell id="NSkW3KWlc_2_OilBfYWb-109" value="" style="endArrow=classic;html=1;rounded=0;entryX=0.5;entryY=0;entryDx=0;entryDy=0;" parent="WIyWlLk6GJQsqaUBKTNV-1" target="NSkW3KWlc_2_OilBfYWb-112" edge="1">
          <mxGeometry width="50" height="50" relative="1" as="geometry">
            <mxPoint x="1285.5" y="1850" as="sourcePoint" />
            <mxPoint x="1181.5" y="1910" as="targetPoint" />
          </mxGeometry>
        </mxCell>
        <mxCell id="NSkW3KWlc_2_OilBfYWb-110" value="" style="endArrow=classic;html=1;rounded=0;entryX=0.25;entryY=0;entryDx=0;entryDy=0;" parent="WIyWlLk6GJQsqaUBKTNV-1" target="NSkW3KWlc_2_OilBfYWb-111" edge="1">
          <mxGeometry width="50" height="50" relative="1" as="geometry">
            <mxPoint x="1285.5" y="1850" as="sourcePoint" />
            <mxPoint x="1381" y="1910" as="targetPoint" />
          </mxGeometry>
        </mxCell>
        <mxCell id="NSkW3KWlc_2_OilBfYWb-111" value="No" style="text;html=1;align=center;verticalAlign=middle;whiteSpace=wrap;rounded=0;" parent="WIyWlLk6GJQsqaUBKTNV-1" vertex="1">
          <mxGeometry x="1360" y="1940" width="60" height="30" as="geometry" />
        </mxCell>
        <mxCell id="NSkW3KWlc_2_OilBfYWb-112" value="Yes" style="text;html=1;align=center;verticalAlign=middle;whiteSpace=wrap;rounded=0;" parent="WIyWlLk6GJQsqaUBKTNV-1" vertex="1">
          <mxGeometry x="1150" y="1920" width="60" height="30" as="geometry" />
        </mxCell>
        <mxCell id="NSkW3KWlc_2_OilBfYWb-113" value="" style="endArrow=classic;html=1;rounded=0;entryX=0;entryY=0.5;entryDx=0;entryDy=0;" parent="WIyWlLk6GJQsqaUBKTNV-1" source="NSkW3KWlc_2_OilBfYWb-112" target="NSkW3KWlc_2_OilBfYWb-46" edge="1">
          <mxGeometry width="50" height="50" relative="1" as="geometry">
            <mxPoint x="1100" y="1940" as="sourcePoint" />
            <mxPoint x="1150" y="1890" as="targetPoint" />
            <Array as="points">
              <mxPoint x="1100" y="1935" />
              <mxPoint x="1100" y="1460" />
            </Array>
          </mxGeometry>
        </mxCell>
        <mxCell id="NSkW3KWlc_2_OilBfYWb-114" value="" style="endArrow=classic;html=1;rounded=0;exitX=0.5;exitY=1;exitDx=0;exitDy=0;entryX=0.5;entryY=0;entryDx=0;entryDy=0;" parent="WIyWlLk6GJQsqaUBKTNV-1" source="NSkW3KWlc_2_OilBfYWb-49" target="NSkW3KWlc_2_OilBfYWb-107" edge="1">
          <mxGeometry width="50" height="50" relative="1" as="geometry">
            <mxPoint x="1410" y="1660" as="sourcePoint" />
            <mxPoint x="1460" y="1610" as="targetPoint" />
          </mxGeometry>
        </mxCell>
        <mxCell id="NSkW3KWlc_2_OilBfYWb-115" value="" style="endArrow=classic;html=1;rounded=0;" parent="WIyWlLk6GJQsqaUBKTNV-1" source="NSkW3KWlc_2_OilBfYWb-107" edge="1">
          <mxGeometry width="50" height="50" relative="1" as="geometry">
            <mxPoint x="1280.29" y="1770" as="sourcePoint" />
            <mxPoint x="1280" y="1790" as="targetPoint" />
          </mxGeometry>
        </mxCell>
        <mxCell id="NSkW3KWlc_2_OilBfYWb-125" value="Set organiser" style="whiteSpace=wrap;html=1;aspect=fixed;" parent="WIyWlLk6GJQsqaUBKTNV-1" vertex="1">
          <mxGeometry x="1360" y="580" width="80" height="80" as="geometry" />
        </mxCell>
        <mxCell id="NSkW3KWlc_2_OilBfYWb-128" value="Are you part of the expense?" style="text;html=1;align=center;verticalAlign=middle;whiteSpace=wrap;rounded=0;" parent="WIyWlLk6GJQsqaUBKTNV-1" vertex="1">
          <mxGeometry x="1474.5" y="1550" width="60" height="30" as="geometry" />
        </mxCell>
        <mxCell id="NSkW3KWlc_2_OilBfYWb-129" value="" style="endArrow=classic;html=1;rounded=0;entryX=1;entryY=0.5;entryDx=0;entryDy=0;" parent="WIyWlLk6GJQsqaUBKTNV-1" target="NSkW3KWlc_2_OilBfYWb-107" edge="1">
          <mxGeometry width="50" height="50" relative="1" as="geometry">
            <mxPoint x="1504.5" y="1600" as="sourcePoint" />
            <mxPoint x="1400.5" y="1660" as="targetPoint" />
          </mxGeometry>
        </mxCell>
        <mxCell id="NSkW3KWlc_2_OilBfYWb-130" value="" style="endArrow=classic;html=1;rounded=0;entryX=1;entryY=0.5;entryDx=0;entryDy=0;" parent="WIyWlLk6GJQsqaUBKTNV-1" target="NSkW3KWlc_2_OilBfYWb-68" edge="1">
          <mxGeometry width="50" height="50" relative="1" as="geometry">
            <mxPoint x="1504.5" y="1600" as="sourcePoint" />
            <mxPoint x="1510" y="2070" as="targetPoint" />
            <Array as="points">
              <mxPoint x="1505" y="2035" />
            </Array>
          </mxGeometry>
        </mxCell>
        <mxCell id="NSkW3KWlc_2_OilBfYWb-131" value="" style="endArrow=classic;html=1;rounded=0;exitX=0.5;exitY=1;exitDx=0;exitDy=0;" parent="WIyWlLk6GJQsqaUBKTNV-1" source="NSkW3KWlc_2_OilBfYWb-58" edge="1">
          <mxGeometry width="50" height="50" relative="1" as="geometry">
            <mxPoint x="1230" y="1650" as="sourcePoint" />
            <mxPoint x="1500" y="1540" as="targetPoint" />
          </mxGeometry>
        </mxCell>
        <mxCell id="NSkW3KWlc_2_OilBfYWb-133" value="New event?" style="text;html=1;align=center;verticalAlign=middle;whiteSpace=wrap;rounded=0;" parent="WIyWlLk6GJQsqaUBKTNV-1" vertex="1">
          <mxGeometry x="1370" y="420" width="60" height="30" as="geometry" />
        </mxCell>
        <mxCell id="NSkW3KWlc_2_OilBfYWb-134" value="Yes" style="text;html=1;align=center;verticalAlign=middle;whiteSpace=wrap;rounded=0;" parent="WIyWlLk6GJQsqaUBKTNV-1" vertex="1">
          <mxGeometry x="1380" y="520" width="60" height="30" as="geometry" />
        </mxCell>
        <mxCell id="NSkW3KWlc_2_OilBfYWb-135" value="No" style="text;html=1;align=center;verticalAlign=middle;whiteSpace=wrap;rounded=0;" parent="WIyWlLk6GJQsqaUBKTNV-1" vertex="1">
          <mxGeometry x="1275" y="520" width="60" height="30" as="geometry" />
        </mxCell>
        <mxCell id="NSkW3KWlc_2_OilBfYWb-136" value="" style="endArrow=classic;html=1;rounded=0;entryX=0.75;entryY=0;entryDx=0;entryDy=0;" parent="WIyWlLk6GJQsqaUBKTNV-1" target="NSkW3KWlc_2_OilBfYWb-135" edge="1">
          <mxGeometry width="50" height="50" relative="1" as="geometry">
            <mxPoint x="1400" y="460" as="sourcePoint" />
            <mxPoint x="1410" y="519" as="targetPoint" />
          </mxGeometry>
        </mxCell>
        <mxCell id="NSkW3KWlc_2_OilBfYWb-138" value="" style="endArrow=classic;html=1;rounded=0;exitX=0.5;exitY=1;exitDx=0;exitDy=0;entryX=0.609;entryY=-0.01;entryDx=0;entryDy=0;entryPerimeter=0;" parent="WIyWlLk6GJQsqaUBKTNV-1" source="NSkW3KWlc_2_OilBfYWb-134" target="NSkW3KWlc_2_OilBfYWb-125" edge="1">
          <mxGeometry width="50" height="50" relative="1" as="geometry">
            <mxPoint x="1360" y="520" as="sourcePoint" />
            <mxPoint x="1410" y="470" as="targetPoint" />
          </mxGeometry>
        </mxCell>
        <mxCell id="NSkW3KWlc_2_OilBfYWb-141" value="" style="endArrow=classic;html=1;rounded=0;exitX=0.5;exitY=1;exitDx=0;exitDy=0;entryX=0.5;entryY=0;entryDx=0;entryDy=0;" parent="WIyWlLk6GJQsqaUBKTNV-1" source="NSkW3KWlc_2_OilBfYWb-101" target="NSkW3KWlc_2_OilBfYWb-133" edge="1">
          <mxGeometry width="50" height="50" relative="1" as="geometry">
            <mxPoint x="1400" y="650" as="sourcePoint" />
            <mxPoint x="1450" y="600" as="targetPoint" />
          </mxGeometry>
        </mxCell>
        <mxCell id="NSkW3KWlc_2_OilBfYWb-142" value="" style="endArrow=classic;html=1;rounded=0;exitX=0.5;exitY=1;exitDx=0;exitDy=0;entryX=0.5;entryY=0;entryDx=0;entryDy=0;" parent="WIyWlLk6GJQsqaUBKTNV-1" source="NSkW3KWlc_2_OilBfYWb-97" target="NSkW3KWlc_2_OilBfYWb-133" edge="1">
          <mxGeometry width="50" height="50" relative="1" as="geometry">
            <mxPoint x="1291" y="400" as="sourcePoint" />
            <mxPoint x="1410" y="430" as="targetPoint" />
          </mxGeometry>
        </mxCell>
        <mxCell id="NSkW3KWlc_2_OilBfYWb-143" value="" style="endArrow=classic;html=1;rounded=0;entryX=0.5;entryY=0;entryDx=0;entryDy=0;" parent="WIyWlLk6GJQsqaUBKTNV-1" target="NSkW3KWlc_2_OilBfYWb-134" edge="1">
          <mxGeometry width="50" height="50" relative="1" as="geometry">
            <mxPoint x="1410" y="460" as="sourcePoint" />
            <mxPoint x="1330" y="530" as="targetPoint" />
          </mxGeometry>
        </mxCell>
        <mxCell id="NSkW3KWlc_2_OilBfYWb-144" value="Request access" style="whiteSpace=wrap;html=1;aspect=fixed;" parent="WIyWlLk6GJQsqaUBKTNV-1" vertex="1">
          <mxGeometry x="1360" y="1030" width="80" height="80" as="geometry" />
        </mxCell>
        <mxCell id="NSkW3KWlc_2_OilBfYWb-147" value="Organizer is the approver" style="text;html=1;align=center;verticalAlign=middle;whiteSpace=wrap;rounded=0;" parent="WIyWlLk6GJQsqaUBKTNV-1" vertex="1">
          <mxGeometry x="1450" y="1055" width="60" height="30" as="geometry" />
        </mxCell>
        <mxCell id="NSkW3KWlc_2_OilBfYWb-149" value="Grant access" style="text;html=1;align=center;verticalAlign=middle;whiteSpace=wrap;rounded=0;" parent="WIyWlLk6GJQsqaUBKTNV-1" vertex="1">
          <mxGeometry x="1560" y="1060" width="60" height="30" as="geometry" />
        </mxCell>
        <mxCell id="NSkW3KWlc_2_OilBfYWb-150" value="Yes" style="text;html=1;align=center;verticalAlign=middle;whiteSpace=wrap;rounded=0;" parent="WIyWlLk6GJQsqaUBKTNV-1" vertex="1">
          <mxGeometry x="1360" y="1220" width="60" height="30" as="geometry" />
        </mxCell>
        <mxCell id="NSkW3KWlc_2_OilBfYWb-151" value="No" style="text;html=1;align=center;verticalAlign=middle;whiteSpace=wrap;rounded=0;" parent="WIyWlLk6GJQsqaUBKTNV-1" vertex="1">
          <mxGeometry x="1205" y="1220" width="60" height="30" as="geometry" />
        </mxCell>
        <mxCell id="NSkW3KWlc_2_OilBfYWb-152" value="" style="endArrow=classic;html=1;rounded=0;entryX=0.75;entryY=0;entryDx=0;entryDy=0;" parent="WIyWlLk6GJQsqaUBKTNV-1" target="NSkW3KWlc_2_OilBfYWb-151" edge="1">
          <mxGeometry width="50" height="50" relative="1" as="geometry">
            <mxPoint x="1390" y="1120" as="sourcePoint" />
            <mxPoint x="1400" y="1179" as="targetPoint" />
          </mxGeometry>
        </mxCell>
        <mxCell id="NSkW3KWlc_2_OilBfYWb-155" value="" style="endArrow=classic;html=1;rounded=0;entryX=0.5;entryY=0;entryDx=0;entryDy=0;" parent="WIyWlLk6GJQsqaUBKTNV-1" target="NSkW3KWlc_2_OilBfYWb-150" edge="1">
          <mxGeometry width="50" height="50" relative="1" as="geometry">
            <mxPoint x="1390" y="1120" as="sourcePoint" />
            <mxPoint x="1260" y="1200" as="targetPoint" />
          </mxGeometry>
        </mxCell>
        <mxCell id="NSkW3KWlc_2_OilBfYWb-156" value="Stop" style="whiteSpace=wrap;html=1;aspect=fixed;" parent="WIyWlLk6GJQsqaUBKTNV-1" vertex="1">
          <mxGeometry x="1191" y="1250" width="80" height="80" as="geometry" />
        </mxCell>
        <mxCell id="KpGOKhWoG8OeWUsjkw3W-2" value="" style="endArrow=classic;html=1;rounded=0;exitX=0.5;exitY=1;exitDx=0;exitDy=0;entryX=0.5;entryY=0;entryDx=0;entryDy=0;" edge="1" parent="WIyWlLk6GJQsqaUBKTNV-1" source="NSkW3KWlc_2_OilBfYWb-125" target="NSkW3KWlc_2_OilBfYWb-55">
          <mxGeometry width="50" height="50" relative="1" as="geometry">
            <mxPoint x="1050" y="690" as="sourcePoint" />
            <mxPoint x="1100" y="640" as="targetPoint" />
          </mxGeometry>
        </mxCell>
        <mxCell id="KpGOKhWoG8OeWUsjkw3W-8" value="" style="endArrow=classic;html=1;rounded=0;exitX=0.5;exitY=1;exitDx=0;exitDy=0;entryX=0.5;entryY=0;entryDx=0;entryDy=0;" edge="1" parent="WIyWlLk6GJQsqaUBKTNV-1" source="NSkW3KWlc_2_OilBfYWb-55" target="NSkW3KWlc_2_OilBfYWb-51">
          <mxGeometry width="50" height="50" relative="1" as="geometry">
            <mxPoint x="1470" y="960" as="sourcePoint" />
            <mxPoint x="1520" y="910" as="targetPoint" />
          </mxGeometry>
        </mxCell>
        <mxCell id="KpGOKhWoG8OeWUsjkw3W-10" value="Request generation&lt;div&gt;(via link)&lt;/div&gt;" style="whiteSpace=wrap;html=1;aspect=fixed;" vertex="1" parent="WIyWlLk6GJQsqaUBKTNV-1">
          <mxGeometry x="1360" y="910" width="80" height="80" as="geometry" />
        </mxCell>
        <mxCell id="KpGOKhWoG8OeWUsjkw3W-12" value="" style="endArrow=classic;html=1;rounded=0;entryX=0.5;entryY=1;entryDx=0;entryDy=0;" edge="1" parent="WIyWlLk6GJQsqaUBKTNV-1" source="NSkW3KWlc_2_OilBfYWb-144" target="NSkW3KWlc_2_OilBfYWb-135">
          <mxGeometry width="50" height="50" relative="1" as="geometry">
            <mxPoint x="1300" y="1090" as="sourcePoint" />
            <mxPoint x="1520" y="950" as="targetPoint" />
            <Array as="points">
              <mxPoint x="1305" y="1070" />
            </Array>
          </mxGeometry>
        </mxCell>
        <mxCell id="KpGOKhWoG8OeWUsjkw3W-13" value="" style="endArrow=classic;html=1;rounded=0;exitX=0.5;exitY=1;exitDx=0;exitDy=0;entryX=0.5;entryY=0;entryDx=0;entryDy=0;" edge="1" parent="WIyWlLk6GJQsqaUBKTNV-1" source="NSkW3KWlc_2_OilBfYWb-51" target="KpGOKhWoG8OeWUsjkw3W-10">
          <mxGeometry width="50" height="50" relative="1" as="geometry">
            <mxPoint x="760" y="1000" as="sourcePoint" />
            <mxPoint x="1140" y="1010" as="targetPoint" />
          </mxGeometry>
        </mxCell>
        <mxCell id="KpGOKhWoG8OeWUsjkw3W-14" value="" style="endArrow=classic;html=1;rounded=0;exitX=0.5;exitY=1;exitDx=0;exitDy=0;entryX=0.5;entryY=0;entryDx=0;entryDy=0;" edge="1" parent="WIyWlLk6GJQsqaUBKTNV-1" source="KpGOKhWoG8OeWUsjkw3W-10" target="NSkW3KWlc_2_OilBfYWb-144">
          <mxGeometry width="50" height="50" relative="1" as="geometry">
            <mxPoint x="880" y="950" as="sourcePoint" />
            <mxPoint x="930" y="900" as="targetPoint" />
          </mxGeometry>
        </mxCell>
        <mxCell id="KpGOKhWoG8OeWUsjkw3W-34" value="" style="edgeStyle=entityRelationEdgeStyle;fontSize=12;html=1;endArrow=ERoneToMany;rounded=0;exitX=0;exitY=0.5;exitDx=0;exitDy=0;entryX=1;entryY=0.5;entryDx=0;entryDy=0;" edge="1" parent="WIyWlLk6GJQsqaUBKTNV-1" source="NSkW3KWlc_2_OilBfYWb-32" target="KpGOKhWoG8OeWUsjkw3W-3">
          <mxGeometry width="100" height="100" relative="1" as="geometry">
            <mxPoint x="520" y="390" as="sourcePoint" />
            <mxPoint x="620" y="290" as="targetPoint" />
          </mxGeometry>
        </mxCell>
        <mxCell id="KpGOKhWoG8OeWUsjkw3W-37" value="" style="endArrow=classic;html=1;rounded=0;exitX=0;exitY=0.5;exitDx=0;exitDy=0;entryX=0.82;entryY=0.001;entryDx=0;entryDy=0;entryPerimeter=0;" edge="1" parent="WIyWlLk6GJQsqaUBKTNV-1" source="NSkW3KWlc_2_OilBfYWb-41" target="NSkW3KWlc_2_OilBfYWb-7">
          <mxGeometry width="50" height="50" relative="1" as="geometry">
            <mxPoint x="620" y="610.9999999999998" as="sourcePoint" />
            <mxPoint x="490" y="698" as="targetPoint" />
            <Array as="points">
              <mxPoint x="510" y="497" />
            </Array>
          </mxGeometry>
        </mxCell>
        <mxCell id="KpGOKhWoG8OeWUsjkw3W-39" value="DebtUser" style="edgeLabel;html=1;align=center;verticalAlign=middle;resizable=0;points=[];" vertex="1" connectable="0" parent="KpGOKhWoG8OeWUsjkw3W-37">
          <mxGeometry x="0.453" y="-4" relative="1" as="geometry">
            <mxPoint x="1" as="offset" />
          </mxGeometry>
        </mxCell>
        <mxCell id="KpGOKhWoG8OeWUsjkw3W-38" value="" style="endArrow=classic;html=1;rounded=0;entryX=0.5;entryY=0;entryDx=0;entryDy=0;" edge="1" parent="WIyWlLk6GJQsqaUBKTNV-1" target="NSkW3KWlc_2_OilBfYWb-0">
          <mxGeometry width="50" height="50" relative="1" as="geometry">
            <mxPoint x="510" y="500" as="sourcePoint" />
            <mxPoint x="690" y="528" as="targetPoint" />
            <Array as="points" />
          </mxGeometry>
        </mxCell>
        <mxCell id="KpGOKhWoG8OeWUsjkw3W-40" value="PayingUser" style="edgeLabel;html=1;align=center;verticalAlign=middle;resizable=0;points=[];" vertex="1" connectable="0" parent="KpGOKhWoG8OeWUsjkw3W-38">
          <mxGeometry x="0.0776" y="2" relative="1" as="geometry">
            <mxPoint x="2" y="13" as="offset" />
          </mxGeometry>
        </mxCell>
        <mxCell id="KpGOKhWoG8OeWUsjkw3W-42" value="" style="edgeStyle=entityRelationEdgeStyle;fontSize=12;html=1;endArrow=ERoneToMany;rounded=0;exitX=1;exitY=0.5;exitDx=0;exitDy=0;entryX=0;entryY=0.5;entryDx=0;entryDy=0;" edge="1" parent="WIyWlLk6GJQsqaUBKTNV-1" source="NSkW3KWlc_2_OilBfYWb-74" target="KpGOKhWoG8OeWUsjkw3W-19">
          <mxGeometry width="100" height="100" relative="1" as="geometry">
            <mxPoint x="560" y="330" as="sourcePoint" />
            <mxPoint x="390" y="408" as="targetPoint" />
          </mxGeometry>
        </mxCell>
        <mxCell id="KpGOKhWoG8OeWUsjkw3W-43" value="" style="edgeStyle=entityRelationEdgeStyle;fontSize=12;html=1;endArrow=ERoneToMany;rounded=0;entryX=0;entryY=0.5;entryDx=0;entryDy=0;exitX=1;exitY=0.5;exitDx=0;exitDy=0;" edge="1" parent="WIyWlLk6GJQsqaUBKTNV-1" source="NSkW3KWlc_2_OilBfYWb-8" target="NSkW3KWlc_2_OilBfYWb-44">
          <mxGeometry width="100" height="100" relative="1" as="geometry">
            <mxPoint x="440" y="690" as="sourcePoint" />
            <mxPoint x="610" y="849" as="targetPoint" />
          </mxGeometry>
        </mxCell>
        <mxCell id="KpGOKhWoG8OeWUsjkw3W-44" value="" style="edgeStyle=entityRelationEdgeStyle;fontSize=12;html=1;endArrow=ERoneToMany;rounded=0;entryX=1;entryY=0.5;entryDx=0;entryDy=0;exitX=0;exitY=0.5;exitDx=0;exitDy=0;" edge="1" parent="WIyWlLk6GJQsqaUBKTNV-1" source="NSkW3KWlc_2_OilBfYWb-1" target="NSkW3KWlc_2_OilBfYWb-9">
          <mxGeometry width="100" height="100" relative="1" as="geometry">
            <mxPoint x="450" y="699" as="sourcePoint" />
            <mxPoint x="600" y="865" as="targetPoint" />
          </mxGeometry>
        </mxCell>
        <mxCell id="KpGOKhWoG8OeWUsjkw3W-57" value="Add wallet if possible&lt;div&gt;&lt;br&gt;&lt;/div&gt;&lt;div&gt;- To do:&lt;/div&gt;&lt;div&gt;&lt;br&gt;&lt;/div&gt;&lt;div&gt;1. Balance between same accounts&lt;/div&gt;" style="text;html=1;align=center;verticalAlign=middle;whiteSpace=wrap;rounded=0;" vertex="1" parent="WIyWlLk6GJQsqaUBKTNV-1">
          <mxGeometry x="120" y="320" width="60" height="30" as="geometry" />
        </mxCell>
        <mxCell id="KpGOKhWoG8OeWUsjkw3W-58" value="Workflow" style="text;html=1;align=center;verticalAlign=middle;whiteSpace=wrap;rounded=0;" vertex="1" parent="WIyWlLk6GJQsqaUBKTNV-1">
          <mxGeometry x="1370" y="-30" width="60" height="30" as="geometry" />
        </mxCell>
      </root>
    </mxGraphModel>
  </diagram>
</mxfile>
